<svg width="1025" height="830" viewBox="0 0 1025 830" fill="none" xmlns="http://www.w3.org/2000/svg">
<path d="M639.104 160.863C713.361 167.352 812.94 176.274 885.737 233.86C958.534 291.446 1004.55 397.697 1019.64 521.251C1034.74 644.805 1018.91 785.391 932.483 811.345C846.295 837.3 689.745 748.622 581.889 733.753C473.789 718.883 414.383 777.551 328.682 808.101C242.738 838.651 130.743 840.814 83.5098 780.254C36.5205 719.964 54.2936 596.951 41.6333 480.697C28.973 364.173 -14.1208 254.407 5.11312 163.567C24.5906 72.7265 106.396 0.811235 194.044 1.08083C281.449 1.08083 374.454 73.5376 445.303 111.928C516.152 150.049 564.846 154.375 639.104 160.863Z" fill="#D8D5EE"/>
</svg>
