<svg width="103" height="32" viewBox="0 0 103 32" fill="none" xmlns="http://www.w3.org/2000/svg">
<path d="M5.6 11.6364V23.2727C5.6 25.5873 6.48499 27.8072 8.0603 29.4438C9.6356 31.0805 11.7722 32 14 32C16.2278 32 18.3644 31.0805 19.9397 29.4438C21.515 27.8072 22.4 25.5873 22.4 23.2727H16.8C16.8 24.0474 16.5151 24.7903 15.9879 25.3381C15.4607 25.8859 14.7456 26.1936 14 26.1936C13.2544 26.1936 12.5393 25.8859 12.0121 25.3381C11.4848 24.7903 11.2 24.0474 11.2 23.2727V11.6364H16.8V5.81818H11.2V0H5.6V5.81818H0L5.6 11.6364Z" fill="#7F6EF0"/>
<path d="M22.4 23.2727H16.8V11.6364L22.4 11.6364V17.4653L28 17.4546L22.4 23.2727Z" fill="#7F6EF0"/>
<path d="M40.9883 24.5V10.5078H45.8867V7.58984H32.5625V10.5078H37.4492V24.5H40.9883ZM57.582 11.9375H54.1602V19.1328C54.1602 20.7969 53.2109 21.8867 51.6875 21.8867C50.1758 21.8867 49.3438 20.9961 49.3438 19.3203V11.9375H45.9219V20.0352C45.9219 22.9648 47.7266 24.7344 50.4453 24.7344C52.3438 24.7344 53.5859 23.8203 54.207 22.2383H54.2773V24.5H57.582V11.9375ZM60.7227 9.04297V11.9375H58.9531V14.5156H60.7227V21.1133C60.7227 23.5625 61.8711 24.5469 64.8242 24.5469C65.5156 24.5469 66.1016 24.4883 66.4531 24.4062V21.8867C66.2422 21.9219 65.9258 21.9453 65.6211 21.9453C64.6133 21.9453 64.1445 21.4883 64.1445 20.5273V14.5156H66.4648V11.9375H64.1445V9.04297H60.7227ZM73.918 24.7695C77.7148 24.7695 80.1406 22.3438 80.1406 18.207C80.1406 14.1289 77.6797 11.668 73.918 11.668C70.1562 11.668 67.6953 14.1406 67.6953 18.207C67.6953 22.332 70.1211 24.7695 73.918 24.7695ZM73.918 22.1562C72.2305 22.1562 71.1641 20.7383 71.1641 18.2188C71.1641 15.7227 72.2539 14.2812 73.918 14.2812C75.582 14.2812 76.6602 15.7227 76.6602 18.2188C76.6602 20.7383 75.5938 22.1562 73.918 22.1562ZM81.9102 24.5H85.332V17.4805C85.332 15.7109 86.3164 14.6797 88.0039 14.6797C88.4961 14.6797 88.9648 14.7617 89.2461 14.8789V11.8672C89.0117 11.7969 88.6719 11.7383 88.2734 11.7383C86.7969 11.7383 85.7305 12.6055 85.2852 14.1992H85.2148V11.9375H81.9102V24.5ZM92.2578 29.1523C95.4688 29.1523 97.0391 28.0039 98.1172 24.7812L102.441 11.9375H98.832L96.1602 21.7578H96.1016L93.4297 11.9375H89.668L94.0391 24.5117C94.0625 24.5586 93.9336 25.0625 93.9336 25.1094C93.6992 26.1055 93.0781 26.5039 91.8242 26.5039C91.6953 26.5039 91.0742 26.5039 90.9688 26.4805V29.1172C91.0742 29.1406 92.1406 29.1523 92.2578 29.1523Z" fill="#28214D"/>
</svg>
