<svg width="965" height="275" viewBox="0 0 965 275" fill="none" xmlns="http://www.w3.org/2000/svg">
<path d="M50 100V200C50 219.891 57.9018 238.968 71.967 253.033C86.0322 267.098 105.109 275 125 275C144.891 275 163.968 267.098 178.033 253.033C192.098 238.968 200 219.891 200 200H150C150 206.657 147.457 213.042 142.749 217.749C138.042 222.457 131.657 225.101 125 225.101C118.343 225.101 111.958 222.457 107.251 217.749C102.543 213.042 100 206.657 100 200V100H150V50H100V0H50V50H0L50 100Z" fill="#7F6EF0"/>
<path d="M200 200H150V100L200 100V150.093L250 150L200 200Z" fill="#7F6EF0"/>
<path d="M347.505 65.5742V89.7324H364.307V108.986H347.505V158.029C347.505 161.662 348.201 164.266 349.594 165.84C350.986 167.414 353.65 168.201 357.586 168.201C360.492 168.201 363.065 167.989 365.306 167.565V187.455C360.159 189.029 354.861 189.816 349.412 189.816C331.006 189.816 321.621 180.522 321.258 161.935V108.986H306.908V89.7324H321.258V65.5742H347.505ZM437.78 178.01C431.302 185.881 422.341 189.816 410.897 189.816C400.362 189.816 392.31 186.789 386.739 180.734C381.229 174.68 378.414 165.81 378.293 154.124V89.7324H404.54V153.216C404.54 163.448 409.202 168.564 418.526 168.564C427.427 168.564 433.542 165.477 436.872 159.301V89.7324H463.21V188H438.507L437.78 178.01ZM514.433 65.5742V89.7324H531.234V108.986H514.433V158.029C514.433 161.662 515.129 164.266 516.521 165.84C517.914 167.414 520.578 168.201 524.514 168.201C527.42 168.201 529.993 167.989 532.233 167.565V187.455C527.087 189.029 521.789 189.816 516.34 189.816C497.934 189.816 488.549 180.522 488.186 161.935V108.986H473.836V89.7324H488.186V65.5742H514.433ZM591.085 189.816C576.675 189.816 564.929 185.396 555.847 176.557C546.825 167.717 542.314 155.94 542.314 141.228V138.685C542.314 128.815 544.222 120.006 548.036 112.256C551.851 104.445 557.239 98.4512 564.202 94.2734C571.226 90.0352 579.218 87.916 588.179 87.916C601.62 87.916 612.186 92.1543 619.875 100.631C627.625 109.107 631.5 121.126 631.5 136.687V147.403H568.925C569.772 153.821 572.315 158.968 576.554 162.843C580.853 166.718 586.271 168.655 592.811 168.655C602.922 168.655 610.823 164.992 616.515 157.666L629.411 172.106C625.476 177.677 620.147 182.036 613.427 185.185C606.706 188.272 599.259 189.816 591.085 189.816ZM588.088 109.168C582.881 109.168 578.643 110.924 575.373 114.436C572.164 117.947 570.105 122.973 569.197 129.512H605.707V127.423C605.586 121.61 604.012 117.13 600.984 113.981C597.957 110.772 593.658 109.168 588.088 109.168ZM677.909 65.5742V89.7324H694.711V108.986H677.909V158.029C677.909 161.662 678.605 164.266 679.998 165.84C681.391 167.414 684.055 168.201 687.99 168.201C690.896 168.201 693.47 167.989 695.71 167.565V187.455C690.563 189.029 685.266 189.816 679.816 189.816C661.41 189.816 652.025 180.522 651.662 161.935V108.986H637.312V89.7324H651.662V65.5742H677.909ZM702.521 137.958C702.521 128.21 704.398 119.521 708.152 111.893C711.906 104.264 717.295 98.3604 724.318 94.1826C731.402 90.0049 739.606 87.916 748.931 87.916C762.19 87.916 772.998 91.9727 781.354 100.086C789.77 108.199 794.462 119.219 795.431 133.145L795.612 139.865C795.612 154.941 791.404 167.051 782.988 176.193C774.572 185.275 763.28 189.816 749.112 189.816C734.944 189.816 723.622 185.275 715.146 176.193C706.729 167.111 702.521 154.76 702.521 139.139V137.958ZM728.769 139.865C728.769 149.189 730.524 156.334 734.036 161.299C737.548 166.203 742.573 168.655 749.112 168.655C755.47 168.655 760.435 166.233 764.007 161.39C767.579 156.485 769.365 148.675 769.365 137.958C769.365 128.815 767.579 121.731 764.007 116.706C760.435 111.681 755.409 109.168 748.931 109.168C742.513 109.168 737.548 111.681 734.036 116.706C730.524 121.671 728.769 129.391 728.769 139.865ZM866.997 114.345C863.425 113.86 860.276 113.618 857.552 113.618C847.622 113.618 841.113 116.979 838.025 123.699V188H811.778V89.7324H836.572L837.299 101.448C842.566 92.4268 849.862 87.916 859.187 87.916C862.093 87.916 864.817 88.3096 867.36 89.0967L866.997 114.345ZM918.038 150.854L936.202 89.7324H964.356L924.85 203.258L922.67 208.435C916.797 221.271 907.109 227.688 893.607 227.688C889.793 227.688 885.918 227.113 881.982 225.963V206.073L885.979 206.164C890.943 206.164 894.637 205.407 897.059 203.894C899.541 202.38 901.479 199.867 902.871 196.355L905.959 188.272L871.538 89.7324H899.783L918.038 150.854Z" fill="#1E1938"/>
</svg>
