<svg width="1440" height="317" viewBox="0 0 1440 317" fill="none" xmlns="http://www.w3.org/2000/svg">
<path d="M-6 171.775L16.0113 159.195C37.862 146.615 81.8847 121.455 125.747 109.924C169.609 98.3923 213.631 100.489 257.172 98.3923C300.873 96.2956 344.253 90.0057 387.955 94.199C431.495 98.3923 475.518 113.069 519.38 110.448C563.242 107.827 607.265 87.909 651.127 93.6748C694.989 99.4406 739.011 130.89 782.873 139.277C826.735 147.663 870.758 132.987 914.62 124.6C958.482 116.214 1002.5 114.117 1046.05 114.117C1089.75 114.117 1133.13 116.214 1176.83 110.448C1220.37 104.682 1264.39 91.054 1308.25 94.7231C1352.12 98.3923 1396.14 119.359 1417.99 129.842L1440 140.325V84.764L1417.99 80.0466C1396.14 75.3291 1352.12 65.8942 1308.25 65.3701C1264.39 64.8459 1220.37 73.2325 1176.83 77.9499C1133.13 82.6674 1089.75 83.7157 1046.05 82.6674C1002.5 81.6191 958.482 78.4741 914.62 82.6674C870.758 86.8607 826.735 98.3923 782.873 92.1023C739.011 85.8124 694.989 61.7009 651.127 60.6526C607.265 59.6043 563.242 81.6191 519.38 82.6674C475.518 83.7157 431.495 63.7976 387.955 56.9835C344.253 50.1694 300.873 56.4593 257.172 57.5076C213.631 58.556 169.609 54.3627 125.747 64.3217C81.8847 74.2808 37.862 98.3923 16.0113 110.448L-6 122.504V171.775Z" fill="#D8D5EE"/>
<path d="M-6 203.224L16.0113 194.314C37.862 185.403 81.8847 167.581 125.747 163.388C169.609 159.195 213.631 168.63 257.172 168.105C300.873 167.581 344.253 157.098 387.955 162.34C431.495 167.581 475.518 188.548 519.38 188.548C563.242 188.548 607.265 167.581 651.127 168.105C694.989 168.63 739.011 190.644 782.873 197.459C826.735 204.273 870.758 195.886 914.62 183.83C958.482 171.775 1002.5 156.05 1046.05 153.429C1089.75 150.808 1133.13 161.291 1176.83 157.098C1220.37 152.905 1264.39 134.035 1308.25 136.132C1352.12 138.228 1396.14 161.291 1417.99 172.823L1440 184.355V138.228L1417.99 127.745C1396.14 117.262 1352.12 96.2953 1308.25 92.6262C1264.39 88.957 1220.37 102.585 1176.83 108.351C1133.13 114.117 1089.75 112.02 1046.05 112.02C1002.5 112.02 958.482 114.117 914.62 122.503C870.758 130.89 826.735 145.567 782.873 137.18C739.011 128.793 694.989 97.3436 651.127 91.5778C607.265 85.8121 563.242 105.73 519.38 108.351C475.518 110.972 431.495 96.2953 387.955 92.102C344.253 87.9087 300.873 94.1986 257.172 96.2953C213.631 98.3919 169.609 96.2953 125.747 107.827C81.8847 119.358 37.862 144.518 16.0113 157.098L-6 169.678V203.224Z" fill="#6658C0"/>
<path d="M-6 269.269L16.0113 271.89C37.862 274.51 81.8847 279.752 125.747 277.131C169.609 274.51 213.631 264.027 257.172 259.31C300.873 254.592 344.253 255.641 387.955 255.117C431.495 254.592 475.518 252.496 519.38 252.496C563.242 252.496 607.265 254.592 651.127 258.786C694.989 262.979 739.011 269.269 782.873 273.986C826.735 278.704 870.758 281.849 914.62 279.752C958.482 277.655 1002.5 270.317 1046.05 270.841C1089.75 271.366 1133.13 279.752 1176.83 282.373C1220.37 284.994 1264.39 281.849 1308.25 276.607C1352.12 271.366 1396.14 264.027 1417.99 260.358L1440 256.689V182.258L1417.99 170.726C1396.14 159.195 1352.12 136.132 1308.25 134.035C1264.39 131.938 1220.37 150.808 1176.83 155.002C1133.13 159.195 1089.75 148.712 1046.05 151.332C1002.5 153.953 958.482 169.678 914.62 181.734C870.758 193.79 826.735 202.176 782.873 195.362C739.011 188.548 694.989 166.533 651.127 166.009C607.265 165.485 563.242 186.451 519.38 186.451C475.518 186.451 431.495 165.485 387.955 160.243C344.253 155.002 300.873 165.485 257.172 166.009C213.631 166.533 169.609 157.098 125.747 161.291C81.8847 165.485 37.862 183.306 16.0113 192.217L-6 201.128V269.269Z" fill="#373860"/>
<path d="M-6 316.443H16.0113C37.862 316.443 81.8847 316.443 125.747 316.443C169.609 316.443 213.631 316.443 257.172 316.443C300.873 316.443 344.253 316.443 387.955 316.443C431.495 316.443 475.518 316.443 519.38 316.443C563.242 316.443 607.265 316.443 651.127 316.443C694.989 316.443 739.011 316.443 782.873 316.443C826.735 316.443 870.758 316.443 914.62 316.443C958.482 316.443 1002.5 316.443 1046.05 316.443C1089.75 316.443 1133.13 316.443 1176.83 316.443C1220.37 316.443 1264.39 316.443 1308.25 316.443C1352.12 316.443 1396.14 316.443 1417.99 316.443H1440V254.592L1417.99 258.261C1396.14 261.93 1352.12 269.268 1308.25 274.51C1264.39 279.752 1220.37 282.896 1176.83 280.276C1133.13 277.655 1089.75 269.268 1046.05 268.744C1002.5 268.22 958.482 275.558 914.62 277.655C870.758 279.752 826.735 276.607 782.873 271.889C739.011 267.172 694.989 260.882 651.127 256.688C607.265 252.495 563.242 250.398 519.38 250.398C475.518 250.398 431.495 252.495 387.955 253.019C344.253 253.543 300.873 252.495 257.172 257.213C213.631 261.93 169.609 272.413 125.747 275.034C81.8847 277.655 37.862 272.413 16.0113 269.792L-6 267.172V316.443Z" fill="#373860"/>
</svg>
