<svg width="150" height="150" viewBox="0 0 150 150" fill="none" xmlns="http://www.w3.org/2000/svg">
<rect width="150" height="150" rx="75" fill="#7F6EF0"/>
<path d="M44.4 61.0909V98.1818C44.4 105.56 47.6239 112.635 53.3625 117.852C59.1011 123.069 66.8843 126 75 126C83.1156 126 90.8988 123.069 96.6374 117.852C102.376 112.635 105.6 105.56 105.6 98.1818H85.1999C85.1999 100.651 84.1623 103.019 82.2417 104.765C80.3211 106.511 77.7161 107.492 75 107.492C72.2838 107.492 69.6789 106.511 67.7582 104.765C65.8376 103.019 64.8 100.651 64.8 98.1818V61.0909H85.1999V42.5455H64.8V24H44.4V42.5455H24L44.4 61.0909Z" fill="#F2F0FE"/>
<path d="M105.6 98.1818H85.1999V61.0909L105.6 61.0909V79.6707L126 79.6364L105.6 98.1818Z" fill="#F2F0FE"/>
</svg>
