<svg width="250" height="275" viewBox="0 0 250 275" fill="none" xmlns="http://www.w3.org/2000/svg">
<g opacity="0.85">
<path d="M50 100V200C50 219.891 57.9018 238.968 71.967 253.033C86.0322 267.098 105.109 275 125 275C144.891 275 163.968 267.098 178.033 253.033C192.098 238.968 200 219.891 200 200H150C150 206.657 147.457 213.042 142.749 217.749C138.042 222.457 131.657 225.101 125 225.101C118.343 225.101 111.958 222.457 107.251 217.749C102.543 213.042 100 206.657 100 200V100H150V50H100V0H50V50H0L50 100Z" fill="#57499B"/>
<path d="M200 200H150V100L200 100V150.093L250 150L200 200Z" fill="#57499B"/>
</g>
</svg>
