<svg width="10" height="14" viewBox="0 0 10 14" fill="none" xmlns="http://www.w3.org/2000/svg">
<path fill-rule="evenodd" clip-rule="evenodd" d="M1.79995 0.600098C0.916295 0.600098 0.199951 1.31644 0.199951 2.2001V11.8001C0.199951 12.6838 0.916295 13.4001 1.79995 13.4001H8.19995C9.08361 13.4001 9.79995 12.6838 9.79995 11.8001V4.93147C9.79995 4.50712 9.63138 4.10016 9.33132 3.8001L6.59995 1.06873C6.29989 0.768669 5.89293 0.600098 5.46858 0.600098H1.79995ZM3.39995 8.6001C3.39995 8.15827 3.04178 7.8001 2.59995 7.8001C2.15812 7.8001 1.79995 8.15827 1.79995 8.6001V11.0001C1.79995 11.4419 2.15812 11.8001 2.59995 11.8001C3.04178 11.8001 3.39995 11.4419 3.39995 11.0001V8.6001ZM4.99995 6.2001C5.44178 6.2001 5.79995 6.55827 5.79995 7.0001V11.0001C5.79995 11.4419 5.44178 11.8001 4.99995 11.8001C4.55812 11.8001 4.19995 11.4419 4.19995 11.0001V7.0001C4.19995 6.55827 4.55812 6.2001 4.99995 6.2001ZM8.19995 5.4001C8.19995 4.95827 7.84178 4.6001 7.39995 4.6001C6.95812 4.6001 6.59995 4.95827 6.59995 5.4001V11.0001C6.59995 11.4419 6.95812 11.8001 7.39995 11.8001C7.84178 11.8001 8.19995 11.4419 8.19995 11.0001V5.4001Z" fill="#050037"/>
</svg>
